<svg width="1440" height="787" viewBox="0 0 1440 787" fill="none" xmlns="http://www.w3.org/2000/svg">
<g clip-path="url(#clip0_10_114)">
<rect width="1440" height="787" fill="#FCFCFC"/>
<path d="M1126.23 108.65C1129.84 101.53 1139.93 101.305 1143.86 108.256L1322.69 424.921C1327.08 432.686 1319.87 441.874 1311.29 439.467L1137.53 390.77C1135.67 390.249 1133.69 390.278 1131.85 390.853L977.742 438.944C969.299 441.578 961.844 432.762 965.844 424.874L1126.23 108.65Z" fill="#FCFCFC"/>
<path d="M1139.5 110.715L1318.34 427.379C1320.53 431.262 1316.93 435.856 1312.64 434.653L1138.88 385.956C1136.09 385.174 1133.13 385.217 1130.36 386.08L976.252 434.171C972.031 435.488 968.303 431.08 970.303 427.136L1130.69 110.912C1132.5 107.352 1137.54 107.239 1139.5 110.715Z" stroke="url(#paint0_linear_10_114)" stroke-opacity="0.1" stroke-width="10"/>
<path d="M1128.91 156.919C1132.53 149.827 1142.58 149.602 1146.51 156.524L1272.96 379.079C1277.37 386.838 1270.18 396.047 1261.58 393.653L1140.18 359.834C1138.33 359.318 1136.37 359.347 1134.53 359.916L1027.44 393.134C1018.99 395.755 1011.55 386.918 1015.57 379.038L1128.91 156.919Z" fill="#FCFCFC"/>
<path d="M1142.16 158.994L1268.61 381.549C1270.82 385.429 1267.22 390.033 1262.92 388.836L1141.52 355.017C1138.74 354.244 1135.8 354.286 1133.05 355.14L1025.96 388.358C1021.73 389.669 1018.01 385.251 1020.02 381.31L1133.36 159.191C1135.17 155.646 1140.2 155.533 1142.16 158.994Z" stroke="url(#paint1_linear_10_114)" stroke-opacity="0.1" stroke-width="10"/>
<path d="M1131.23 197.674C1134.85 190.581 1144.9 190.356 1148.84 197.28L1229.67 339.604C1234.08 347.363 1226.88 356.571 1218.29 354.176L1142.5 333.056C1140.65 332.54 1138.69 332.569 1136.86 333.139L1070.73 353.657C1062.28 356.279 1054.84 347.443 1058.86 339.562L1131.23 197.674Z" fill="#FCFCFC"/>
<path d="M1144.49 199.749L1225.32 342.074C1227.52 345.953 1223.93 350.557 1219.63 349.359L1143.85 328.24C1141.07 327.466 1138.13 327.509 1135.37 328.363L1069.25 348.881C1065.02 350.192 1061.3 345.775 1063.31 341.834L1135.69 199.946C1137.5 196.4 1142.52 196.287 1144.49 199.749Z" stroke="url(#paint2_linear_10_114)" stroke-opacity="0.1" stroke-width="10"/>
<rect width="1440" height="787" fill="#FCFCFC" fill-opacity="0.15"/>
<g filter="url(#filter0_d_10_114)">
<rect width="579" height="787" fill="#E0DCDC"/>
</g>
<path d="M0 358C0 252.487 289.687 9.8063 579 76.3837" stroke="white" stroke-width="1.4"/>
<path d="M13 409C13 303.487 300.186 60.8063 587 127.384" stroke="white" stroke-width="1.4"/>
<path d="M28 474C28 368.487 315.186 125.806 602 192.384" stroke="white" stroke-width="1.4"/>
<g clip-path="url(#clip1_10_114)">
<path d="M465.411 639.34C457.128 632.355 452.097 621.322 453.416 610.58C454.736 599.839 462.908 589.965 473.509 587.684C484.11 585.403 496.194 591.717 499.414 602.05C501.186 582.127 503.228 561.37 513.843 544.403C523.454 529.041 540.101 518.048 558.143 516.082C576.185 514.115 595.18 521.543 606.432 535.753C617.684 549.963 620.439 570.621 612.558 586.935C606.753 598.954 596.058 607.898 584.851 615.174C548.64 638.489 505.21 647.97 462.551 641.873L465.411 639.34Z" fill="#F2F2F2"/>
<path d="M625.538 523.25C610.651 535.349 596.994 548.882 584.765 563.652C565.626 586.687 550.138 612.514 538.841 640.233C538.014 642.255 541.305 643.135 542.123 641.136C560.606 596.087 590.112 556.381 627.944 525.651C629.643 524.27 627.223 521.881 625.538 523.25Z" fill="white"/>
<path d="M215.28 638.737C226.657 629.144 233.568 613.989 231.755 599.236C229.943 584.483 218.718 570.92 204.158 567.787C189.597 564.654 172.999 573.327 168.577 587.52C166.143 560.156 163.338 531.645 148.759 508.342C135.558 487.242 112.693 472.143 87.9131 469.442C63.1329 466.741 37.0425 476.943 21.588 496.46C6.13354 515.978 2.34958 544.352 13.1735 566.76C21.1471 583.267 35.8373 595.551 51.229 605.546C100.334 637.431 161.248 650.729 219.209 642.217" fill="#F2F2F2"/>
<path d="M46.0927 477.508C66.5394 494.127 85.2971 512.714 102.095 533.001C118.895 553.266 133.685 575.11 146.259 598.225C153.287 611.192 159.6 624.532 165.171 638.185C166.306 640.963 161.787 642.172 160.664 639.425C150.797 615.354 138.589 592.306 124.217 570.612C109.914 548.996 93.5437 528.815 75.3358 510.353C65.0374 499.917 54.1716 490.053 42.7878 480.806C40.4544 478.91 43.7786 475.628 46.0927 477.508L46.0927 477.508Z" fill="white"/>
<path d="M471.427 644.155H199.984V366.235C199.984 307.105 248.191 259 307.446 259H363.966C423.22 259 471.427 307.105 471.427 366.235V644.155Z" fill="#F2F2F2"/>
<path d="M414.907 644.155H199.984V366.235C199.925 343.578 207.115 321.493 220.507 303.197C221 302.525 221.493 301.863 222.001 301.207C228.478 292.729 236.187 285.263 244.872 279.055C245.362 278.699 245.855 278.349 246.355 277.998C253.622 272.98 261.484 268.877 269.76 265.784C270.252 265.598 270.752 265.412 271.252 265.233C278.738 262.568 286.497 260.742 294.387 259.789C294.876 259.723 295.378 259.67 295.88 259.618C303.569 258.798 311.324 258.798 319.013 259.618C319.514 259.67 320.016 259.723 320.511 259.79C328.399 260.743 336.156 262.568 343.639 265.233C344.14 265.412 344.64 265.598 345.133 265.784C353.308 268.839 361.077 272.88 368.267 277.818C368.766 278.161 369.266 278.511 369.759 278.861C374.627 282.329 379.2 286.192 383.43 290.411C386.823 293.795 389.984 297.403 392.893 301.209C393.399 301.863 393.892 302.525 394.384 303.196C407.777 321.492 414.967 343.577 414.907 366.235V644.155Z" fill="#CCCCCC"/>
<path d="M397.431 519.852C404.003 519.852 409.33 514.536 409.33 507.978C409.33 501.42 404.003 496.104 397.431 496.104C390.859 496.104 385.532 501.42 385.532 507.978C385.532 514.536 390.859 519.852 397.431 519.852Z" fill="#B91933"/>
<path d="M449.19 635.831H440.073L435.735 600.738L449.192 600.739L449.19 635.831Z" fill="#FFB8B8"/>
<path d="M433.56 633.231H451.144V644.279H422.489C422.489 642.828 422.776 641.391 423.332 640.051C423.888 638.711 424.704 637.493 425.732 636.467C426.76 635.441 427.98 634.627 429.323 634.072C430.667 633.517 432.106 633.231 433.56 633.231V633.231Z" fill="#2F2E41"/>
<path d="M494.555 635.831H485.437L481.099 600.738L494.556 600.739L494.555 635.831Z" fill="#FFB8B8"/>
<path d="M478.925 633.231H496.508V644.279H467.853C467.853 642.828 468.14 641.391 468.696 640.051C469.253 638.711 470.068 637.493 471.096 636.467C472.124 635.441 473.345 634.627 474.688 634.072C476.031 633.517 477.471 633.231 478.925 633.231V633.231Z" fill="#2F2E41"/>
<path d="M403.453 510.33C402.797 509.366 402.361 508.27 402.176 507.119C401.99 505.968 402.06 504.791 402.38 503.67C402.699 502.549 403.262 501.512 404.027 500.631C404.792 499.75 405.741 499.048 406.807 498.573L437.801 413.329L453.052 421.634L417.664 503.096C418.345 504.937 418.325 506.963 417.609 508.791C416.893 510.618 415.53 512.12 413.778 513.012C412.027 513.903 410.008 514.123 408.105 513.629C406.202 513.134 404.547 511.961 403.453 510.33V510.33Z" fill="#FFB8B8"/>
<path d="M489.897 526.348C488.884 525.768 488.011 524.974 487.338 524.021C486.666 523.068 486.211 521.979 486.006 520.832C485.801 519.684 485.85 518.506 486.151 517.38C486.452 516.254 486.996 515.207 487.746 514.313L478.144 424.14L495.5 424.931L499.491 513.628C500.911 514.985 501.784 516.815 501.944 518.77C502.103 520.726 501.538 522.672 500.355 524.24C499.173 525.808 497.455 526.888 495.528 527.277C493.6 527.665 491.597 527.335 489.897 526.348V526.348Z" fill="#FFB8B8"/>
<path d="M462.21 397.54C472.297 397.54 480.475 389.379 480.475 379.313C480.475 369.246 472.297 361.086 462.21 361.086C452.122 361.086 443.944 369.246 443.944 379.313C443.944 389.379 452.122 397.54 462.21 397.54Z" fill="#FFB8B8"/>
<path d="M489.781 505.84H434.714L434.78 505.412C434.879 504.773 444.594 441.265 437.429 420.488C436.71 418.446 436.773 416.211 437.606 414.213C438.44 412.215 439.984 410.595 441.942 409.665H441.943C452.184 404.853 471.844 398.926 488.437 413.308C490.879 415.46 492.786 418.148 494.007 421.162C495.228 424.175 495.729 427.431 495.472 430.671L489.781 505.84Z" fill="#B91933"/>
<path d="M445.29 450.65L420.498 445.631L432.119 418.151C432.815 415.489 434.54 413.212 436.916 411.818C439.292 410.423 442.125 410.027 444.794 410.714C447.463 411.402 449.749 413.117 451.152 415.485C452.555 417.853 452.96 420.679 452.277 423.344L445.29 450.65Z" fill="#B91933"/>
<path d="M477.042 459.969L475.552 425.876C474.421 419.467 478.098 413.408 483.752 412.418C489.408 411.431 494.931 415.876 496.067 422.332L501.669 454.189L477.042 459.969Z" fill="#B91933"/>
<path d="M487.949 501.758C496.809 535.432 497.776 578.247 495.385 624.948L483.487 623.464L461.92 534.411L450.021 624.948L436.635 624.206C432.636 575.205 428.742 533.138 435.147 505.468L487.949 501.758Z" fill="#2F2E41"/>
<path d="M474.245 393.399C470.837 397.021 464.509 395.077 464.065 390.128C464.03 389.744 464.033 389.358 464.073 388.974C464.302 386.782 465.571 384.792 465.267 382.478C465.198 381.902 464.983 381.353 464.642 380.883C461.927 377.255 455.553 382.506 452.99 379.221C451.419 377.207 453.266 374.036 452.06 371.785C450.469 368.814 445.755 370.279 442.798 368.652C439.509 366.842 439.706 361.806 441.871 358.743C444.512 355.008 449.141 353.014 453.713 352.727C458.285 352.44 462.825 353.673 467.093 355.333C471.943 357.219 476.752 359.825 479.736 364.081C483.366 369.256 483.715 376.213 481.9 382.264C480.796 385.945 477.028 390.441 474.245 393.399Z" fill="#2F2E41"/>
<path d="M615.959 644.897H82.9686C82.7411 644.896 82.5231 644.779 82.3624 644.57C82.2017 644.361 82.1115 644.079 82.1115 643.784C82.1115 643.489 82.2017 643.207 82.3624 642.998C82.5231 642.789 82.7411 642.672 82.9686 642.671H615.959C616.187 642.672 616.405 642.789 616.565 642.998C616.726 643.207 616.816 643.489 616.816 643.784C616.816 644.079 616.726 644.361 616.565 644.57C616.405 644.779 616.187 644.896 615.959 644.897V644.897Z" fill="#3F3D56"/>
<path d="M355.785 563.636H259.107C257.834 563.643 256.61 563.146 255.703 562.253C254.797 561.361 254.283 560.146 254.273 558.875V343.538C254.283 342.267 254.797 341.052 255.703 340.16C256.61 339.267 257.834 338.77 259.107 338.777H355.785C357.058 338.77 358.282 339.267 359.188 340.16C360.095 341.052 360.609 342.267 360.619 343.538V558.875C360.609 560.146 360.095 561.361 359.188 562.253C358.282 563.146 357.058 563.643 355.785 563.636V563.636Z" fill="white"/>
<path d="M360.619 408.453H254.273V409.937H360.619V408.453Z" fill="#CCCCCC"/>
<path d="M360.991 493.136H254.645V494.62H360.991V493.136Z" fill="#CCCCCC"/>
<path d="M289.226 338.777H287.738V564.378H289.226V338.777Z" fill="#CCCCCC"/>
<path d="M326.41 338.777H324.922V564.378H326.41V338.777Z" fill="#CCCCCC"/>
<path d="M176.838 397.589C208.617 397.589 234.38 371.881 234.38 340.168C234.38 308.456 208.617 282.748 176.838 282.748C145.058 282.748 119.295 308.456 119.295 340.168C119.295 371.881 145.058 397.589 176.838 397.589Z" fill="#B91933"/>
<path d="M200.677 365.188H152.999C152.127 365.187 151.291 364.841 150.675 364.226C150.058 363.61 149.711 362.776 149.711 361.906V333.196C149.712 332.326 150.058 331.492 150.675 330.877C151.291 330.262 152.127 329.916 152.999 329.915H200.677C201.548 329.916 202.384 330.262 203.001 330.877C203.617 331.492 203.964 332.326 203.965 333.196V361.906C203.964 362.776 203.617 363.61 203.001 364.226C202.384 364.841 201.548 365.187 200.677 365.188ZM152.999 333.196V361.906H200.679L200.677 333.196L152.999 333.196Z" fill="white"/>
<path d="M191.634 333.196H162.041V320.071C162.041 310.565 168.264 303.665 176.838 303.665C185.411 303.665 191.634 310.565 191.634 320.071L191.634 333.196ZM165.329 329.915H188.346V320.071C188.346 312.343 183.614 306.946 176.838 306.946C170.062 306.946 165.329 312.343 165.329 320.071L165.329 329.915Z" fill="white"/>
<path d="M176.838 350.012C178.654 350.012 180.126 348.543 180.126 346.731C180.126 344.919 178.654 343.45 176.838 343.45C175.022 343.45 173.55 344.919 173.55 346.731C173.55 348.543 175.022 350.012 176.838 350.012Z" fill="white"/>
</g>
<path d="M879.04 659.26V669.64C879.04 670.83 878.68 671.77 877.96 672.46C877.2 673.21 876.14 673.585 874.78 673.585H873.295C871.985 673.585 870.95 673.24 870.19 672.55C869.42 671.86 869.035 670.89 869.035 669.64V666.955L869.965 666.205H870.865V669.475C870.865 670.425 871.1 671.09 871.57 671.47C872.05 671.86 872.875 672.055 874.045 672.055C875.175 672.055 875.97 671.88 876.43 671.53C876.95 671.13 877.21 670.445 877.21 669.475V659.26H879.04ZM884.3 670C883.2 670 882.335 669.625 881.705 668.875C881.175 668.235 880.91 667.445 880.91 666.505C880.91 665.385 881.225 664.51 881.855 663.88C882.515 663.24 883.36 662.92 884.39 662.92C885.14 662.92 885.79 663.105 886.34 663.475C887.06 663.995 887.42 664.735 887.42 665.695V668.47H887.9V670H887.405C887.335 671.08 886.955 671.925 886.265 672.535C885.785 672.965 885.21 673.26 884.54 673.42C884.07 673.53 883.61 673.585 883.16 673.585C883.01 673.585 882.795 673.575 882.515 673.555H882.47L881.705 672.61V671.95C882.115 672.02 882.5 672.055 882.86 672.055C884.5 672.055 885.395 671.37 885.545 670H884.3ZM885.59 665.695C885.59 665.295 885.46 664.98 885.2 664.75C884.97 664.55 884.7 664.45 884.39 664.45C883.88 664.45 883.475 664.63 883.175 664.99C882.875 665.35 882.725 665.845 882.725 666.475C882.725 667.085 882.89 667.57 883.22 667.93C883.55 668.29 884 668.47 884.57 668.47H885.59V665.695ZM892.529 659.8C892.799 659.8 893.029 659.895 893.219 660.085C893.409 660.275 893.504 660.505 893.504 660.775C893.504 661.035 893.409 661.26 893.219 661.45C893.029 661.64 892.799 661.735 892.529 661.735C892.269 661.735 892.044 661.64 891.854 661.45C891.664 661.26 891.569 661.035 891.569 660.775C891.569 660.505 891.664 660.275 891.854 660.085C892.044 659.895 892.269 659.8 892.529 659.8ZM889.784 663.355C890.774 663.065 891.639 662.92 892.379 662.92C893.589 662.92 894.564 663.3 895.304 664.06C895.974 664.75 896.309 665.61 896.309 666.64V668.35C896.309 668.76 896.169 669.13 895.889 669.46C895.559 669.82 895.159 670 894.689 670H887.789V668.47H894.104C894.354 668.47 894.479 668.345 894.479 668.095V666.745C894.479 666.045 894.249 665.495 893.789 665.095C893.339 664.695 892.714 664.495 891.914 664.495C891.454 664.495 890.744 664.6 889.784 664.81V663.355ZM899.251 663.01C899.591 662.95 899.986 662.92 900.436 662.92C901.586 662.92 902.516 663.29 903.226 664.03C903.856 664.7 904.171 665.53 904.171 666.52V667.96C904.171 668.19 904.166 668.36 904.156 668.47H904.546V670H904.351L903.856 669.385H903.811C903.731 669.475 903.646 669.56 903.556 669.64C903.256 669.88 902.921 670 902.551 670H897.736V668.47H901.966C902.216 668.47 902.341 668.345 902.341 668.095V666.7C902.341 666.01 902.131 665.455 901.711 665.035C901.321 664.645 900.756 664.435 900.016 664.405C899.676 664.405 899.421 664.425 899.251 664.465V663.01ZM908.959 659.26V668.35C908.959 668.77 908.824 669.13 908.554 669.43C908.244 669.81 907.839 670 907.339 670H904.444V668.47H906.754C906.864 668.47 906.959 668.43 907.039 668.35C907.109 668.28 907.144 668.195 907.144 668.095V659.26H908.959ZM912.862 659.26V669.625L911.932 670.375H911.032V659.26H912.862ZM927.702 659.26V668.47H928.452V670H927.687C927.617 671.1 927.207 671.975 926.457 672.625C925.687 673.265 924.682 673.585 923.442 673.585H921.957C920.607 673.585 919.547 673.215 918.777 672.475C918.057 671.775 917.697 670.83 917.697 669.64V666.955L918.627 666.205H919.527V669.475C919.527 670.425 919.767 671.09 920.247 671.47C920.727 671.86 921.547 672.055 922.707 672.055C923.837 672.055 924.632 671.88 925.092 671.53C925.612 671.13 925.872 670.445 925.872 669.475V659.26H927.702ZM932.866 663.1V668.245V668.47H933.631V670H933.106L932.551 669.385H932.521C932.181 669.795 931.756 670 931.246 670H928.351V668.47H930.616C930.756 668.47 930.856 668.43 930.916 668.35C931.006 668.27 931.051 668.17 931.051 668.05V663.1H932.866ZM929.611 671.095C929.881 671.095 930.111 671.19 930.301 671.38C930.491 671.57 930.586 671.8 930.586 672.07C930.586 672.34 930.491 672.57 930.301 672.76C930.111 672.95 929.881 673.045 929.611 673.045C929.341 673.045 929.111 672.95 928.921 672.76C928.731 672.57 928.636 672.34 928.636 672.07C928.636 671.8 928.731 671.57 928.921 671.38C929.111 671.19 929.341 671.095 929.611 671.095ZM931.891 671.095C932.161 671.095 932.391 671.19 932.581 671.38C932.771 671.57 932.866 671.8 932.866 672.07C932.866 672.34 932.771 672.57 932.581 672.76C932.391 672.95 932.161 673.045 931.891 673.045C931.631 673.045 931.406 672.95 931.216 672.76C931.026 672.57 930.931 672.34 930.931 672.07C930.931 671.8 931.026 671.57 931.216 671.38C931.406 671.19 931.631 671.095 931.891 671.095ZM935.501 663.355C936.451 663.065 937.316 662.92 938.096 662.92C939.306 662.92 940.281 663.3 941.021 664.06C941.691 664.74 942.026 665.6 942.026 666.64V668.245V668.47H942.521V670H942.206L941.711 669.385H941.681C941.341 669.795 940.916 670 940.406 670H933.506V668.47H939.821C940.071 668.47 940.196 668.345 940.196 668.095V666.745C940.196 666.065 939.966 665.52 939.506 665.11C939.056 664.69 938.461 664.48 937.721 664.48C937.231 664.48 936.491 664.59 935.501 664.81V663.355ZM937.601 671.095C937.871 671.095 938.101 671.19 938.291 671.38C938.481 671.57 938.576 671.8 938.576 672.07C938.576 672.34 938.481 672.57 938.291 672.76C938.101 672.95 937.871 673.045 937.601 673.045C937.341 673.045 937.116 672.95 936.926 672.76C936.736 672.57 936.641 672.34 936.641 672.07C936.641 671.8 936.736 671.57 936.926 671.38C937.116 671.19 937.341 671.095 937.601 671.095ZM958.328 663.1V668.005V668.47H959.093V670H958.508L958.013 669.385H957.983C957.643 669.795 957.218 670 956.708 670H953.498L953.003 669.385H952.958C952.628 669.795 952.208 670 951.698 670H948.473L947.978 669.385H947.933C947.603 669.795 947.183 670 946.673 670H942.413V668.47H946.088C946.338 668.47 946.463 668.345 946.463 668.095V664.825H948.293V668.005C948.293 668.215 948.288 668.37 948.278 668.47H951.113C951.363 668.47 951.488 668.345 951.488 668.095V663.955H953.318V667.96C953.318 668.02 953.313 668.11 953.303 668.23C953.303 668.34 953.303 668.42 953.303 668.47H956.123C956.373 668.47 956.498 668.345 956.498 668.095V663.1H958.328ZM960.435 659.8C960.705 659.8 960.935 659.895 961.125 660.085C961.315 660.275 961.41 660.505 961.41 660.775C961.41 661.035 961.315 661.26 961.125 661.45C960.935 661.64 960.705 661.735 960.435 661.735C960.165 661.735 959.935 661.64 959.745 661.45C959.555 661.26 959.46 661.035 959.46 660.775C959.46 660.505 959.555 660.275 959.745 660.085C959.935 659.895 960.165 659.8 960.435 659.8ZM962.715 659.8C962.985 659.8 963.215 659.895 963.405 660.085C963.595 660.275 963.69 660.505 963.69 660.775C963.69 661.035 963.595 661.26 963.405 661.45C963.215 661.64 962.985 661.735 962.715 661.735C962.455 661.735 962.23 661.64 962.04 661.45C961.85 661.26 961.755 661.035 961.755 660.775C961.755 660.505 961.85 660.275 962.04 660.085C962.23 659.895 962.455 659.8 962.715 659.8ZM963.495 663.1V668.35C963.495 668.74 963.365 669.1 963.105 669.43C962.775 669.81 962.365 670 961.875 670H958.98V668.47H961.29C961.4 668.47 961.495 668.43 961.575 668.35C961.645 668.28 961.68 668.195 961.68 668.095V663.1H963.495Z" fill="#FCFCFC"/>
</g>
<defs>
<filter id="filter0_d_10_114" x="-4" y="0" width="587" height="795" filterUnits="userSpaceOnUse" color-interpolation-filters="sRGB">
<feFlood flood-opacity="0" result="BackgroundImageFix"/>
<feColorMatrix in="SourceAlpha" type="matrix" values="0 0 0 0 0 0 0 0 0 0 0 0 0 0 0 0 0 0 127 0" result="hardAlpha"/>
<feOffset dy="4"/>
<feGaussianBlur stdDeviation="2"/>
<feComposite in2="hardAlpha" operator="out"/>
<feColorMatrix type="matrix" values="0 0 0 0 0 0 0 0 0 0 0 0 0 0 0 0 0 0 0.25 0"/>
<feBlend mode="normal" in2="BackgroundImageFix" result="effect1_dropShadow_10_114"/>
<feBlend mode="normal" in="SourceGraphic" in2="effect1_dropShadow_10_114" result="shape"/>
</filter>
<linearGradient id="paint0_linear_10_114" x1="993.968" y1="467.011" x2="1292.58" y2="446" gradientUnits="userSpaceOnUse">
<stop stop-color="#220D34"/>
<stop offset="0.576302" stop-color="#B91933"/>
<stop offset="0.933643" stop-color="#FCFCFC"/>
</linearGradient>
<linearGradient id="paint1_linear_10_114" x1="1033.46" y1="415.576" x2="1160.82" y2="456.716" gradientUnits="userSpaceOnUse">
<stop stop-color="#220D34"/>
<stop offset="0.576302" stop-color="#B91933"/>
<stop offset="0.933643" stop-color="#FCFCFC"/>
</linearGradient>
<linearGradient id="paint2_linear_10_114" x1="1067.9" y1="371.34" x2="1155.89" y2="399.755" gradientUnits="userSpaceOnUse">
<stop stop-color="#220D34"/>
<stop offset="0.576302" stop-color="#B91933"/>
<stop offset="0.933643" stop-color="#FCFCFC"/>
</linearGradient>
<clipPath id="clip0_10_114">
<rect width="1440" height="787" fill="white"/>
</clipPath>
<clipPath id="clip1_10_114">
<rect width="647" height="386" fill="white" transform="translate(7 259)"/>
</clipPath>
</defs>
</svg>
